<svg width="512" height="512" viewBox="0 0 512 512" xmlns="http://www.w3.org/2000/svg">
  <defs>
    <linearGradient id="pyBlue" x1="0" y1="0" x2="1" y2="1">
      <stop offset="0%" stop-color="#4b8bbe"/>
      <stop offset="100%" stop-color="#306998"/>
    </linearGradient>
    <linearGradient id="pyYellow" x1="0" y1="0" x2="1" y2="1">
      <stop offset="0%" stop-color="#ffd43b"/>
      <stop offset="100%" stop-color="#ffe873"/>
    </linearGradient>
  </defs>
  <rect x="36" y="36" width="440" height="440" rx="96" fill="#0f172a" stroke="#2a3d5e" stroke-width="6"/>
  <path d="M170 140h156c30 0 54 24 54 54v54c0 30-24 54-54 54H218c-20 0-36 16-36 36v34c0 30-24 54-54 54H118c-30 0-54-24-54-54v-46c0-30 24-54 54-54h54" fill="url(#pyBlue)"/>
  <path d="M342 372H186c-30 0-54-24-54-54v-54c0-30 24-54 54-54h108c20 0 36-16 36-36v-34c0-30 24-54 54-54h10c30 0 54 24 54 54v46c0 30-24 54-54 54h-54" fill="url(#pyYellow)"/>
  <circle cx="212" cy="182" r="10" fill="#ffffff"/>
  <circle cx="300" cy="330" r="10" fill="#1f2937"/>
</svg>