<svg width="1200" height="800" viewBox="0 0 1200 800" xmlns="http://www.w3.org/2000/svg">
  <defs>
    <linearGradient id="bg" x1="0" y1="0" x2="1" y2="1">
      <stop offset="0%" stop-color="#0b1220"/>
      <stop offset="100%" stop-color="#1a2a45"/>
    </linearGradient>
    <linearGradient id="accent" x1="0" y1="0" x2="1" y2="1">
      <stop offset="0%" stop-color="#7c9cff"/>
      <stop offset="100%" stop-color="#57e0ff"/>
    </linearGradient>
  </defs>
  <rect width="1200" height="800" rx="40" fill="url(#bg)"/>
  <rect x="80" y="120" width="520" height="560" rx="28" fill="#111a2b" stroke="#26354f"/>
  <rect x="130" y="170" width="420" height="36" rx="12" fill="#1e2a44"/>
  <rect x="130" y="235" width="420" height="16" rx="8" fill="#273654"/>
  <rect x="130" y="270" width="360" height="16" rx="8" fill="#273654"/>
  <rect x="130" y="305" width="390" height="16" rx="8" fill="#273654"/>
  <rect x="130" y="360" width="420" height="180" rx="18" fill="#0f172a" stroke="#1f2b42"/>
  <circle cx="820" cy="300" r="150" fill="url(#accent)" opacity="0.25"/>
  <circle cx="980" cy="520" r="120" fill="url(#accent)" opacity="0.18"/>
  <rect x="720" y="210" width="380" height="380" rx="32" fill="#121c30" stroke="#26354f"/>
  <path d="M780 300h260" stroke="url(#accent)" stroke-width="8" stroke-linecap="round"/>
  <path d="M780 350h220" stroke="#2a3d5e" stroke-width="8" stroke-linecap="round"/>
  <path d="M780 400h240" stroke="#2a3d5e" stroke-width="8" stroke-linecap="round"/>
  <path d="M780 450h200" stroke="#2a3d5e" stroke-width="8" stroke-linecap="round"/>
  <text x="140" y="620" fill="#9fb0c3" font-family="Inter, Arial" font-size="28">Mini Blog · PHP</text>
</svg>