<svg width="1200" height="800" viewBox="0 0 1200 800" xmlns="http://www.w3.org/2000/svg">
  <defs>
    <linearGradient id="bg" x1="0" y1="0" x2="1" y2="1">
      <stop offset="0%" stop-color="#0b1220"/>
      <stop offset="100%" stop-color="#1a2a45"/>
    </linearGradient>
    <linearGradient id="accent" x1="0" y1="0" x2="1" y2="1">
      <stop offset="0%" stop-color="#7c9cff"/>
      <stop offset="100%" stop-color="#57e0ff"/>
    </linearGradient>
  </defs>
  <rect width="1200" height="800" rx="40" fill="url(#bg)"/>
  <rect x="90" y="150" width="420" height="500" rx="28" fill="#121c30" stroke="#26354f"/>
  <rect x="140" y="200" width="320" height="40" rx="12" fill="#1e2a44"/>
  <rect x="140" y="260" width="320" height="16" rx="8" fill="#273654"/>
  <rect x="140" y="295" width="300" height="16" rx="8" fill="#273654"/>
  <rect x="140" y="330" width="280" height="16" rx="8" fill="#273654"/>
  <rect x="140" y="380" width="320" height="80" rx="16" fill="#0f172a" stroke="#1f2b42"/>
  <circle cx="860" cy="360" r="170" fill="url(#accent)" opacity="0.25"/>
  <rect x="680" y="220" width="380" height="380" rx="32" fill="#111a2b" stroke="#26354f"/>
  <path d="M740 320h260" stroke="url(#accent)" stroke-width="10" stroke-linecap="round"/>
  <path d="M740 370h220" stroke="#2a3d5e" stroke-width="8" stroke-linecap="round"/>
  <path d="M740 420h240" stroke="#2a3d5e" stroke-width="8" stroke-linecap="round"/>
  <path d="M740 470h200" stroke="#2a3d5e" stroke-width="8" stroke-linecap="round"/>
  <text x="140" y="640" fill="#9fb0c3" font-family="Inter, Arial" font-size="28">Restaurant Review Sentiment</text>
</svg>